<svg xmlns="http://www.w3.org/2000/svg" viewBox="0 0 297.77 291.78"><defs><style>.cls-1{fill:#0ac5a8;}.cls-2{fill:none;stroke:#0ac5a8;stroke-linecap:round;stroke-linejoin:round;stroke-width:17px;}</style></defs><g id="Layer_2" data-name="Layer 2"><g id="Layer_2-2" data-name="Layer 2"><path class="cls-1" d="M248.28,8.08q-16.2,2.6-32.4,4.68c-5.4.73-10.8,1.36-16.2,2l-8.1.95-1,.11-.5.06-.42.07c-.55.1-1.1.17-1.63.29-1.08.22-2.14.52-3.18.8-2.08.59-4.18,1-6.25,1.57a27.09,27.09,0,0,0-5.86,2.71,33.49,33.49,0,0,0-5.2,3.83l-1.17,1.11L165,27.69l-2.87,2.87L139.17,53.47,116.26,76.38l-5.73,5.73-1.43,1.43-.72.72c-.22.23-.29.33-.45.5a12.66,12.66,0,0,0-1.5,1.95,13.17,13.17,0,0,0-1.79,9.46,13.31,13.31,0,0,0,5.16,8.15,13.21,13.21,0,0,0,14,1.12c.35-.21.7-.43,1.06-.62s.65-.5,1-.72.61-.56.93-.82l.24-.21.35-.35.72-.72,11.46-11.45,22.91-22.92,5.73-5.72,1.43-1.44.72-.71.35-.36.67-.62a19,19,0,0,1,20.49-3.31,18.62,18.62,0,0,1,3.2,1.8c.49.37,1,.71,1.45,1.12l.68.61c.23.21.48.45.55.53l2.87,2.86,45.84,45.82,22.91,22.91,11.46,11.45c1.92,1.9,3.79,3.85,5.76,5.7,1,.92,2,1.81,3,2.75l.71.72c.12.12.24.24.35.37l.4.45c.63.71,1.21,1.47,1.77,2.22a28.71,28.71,0,0,1,4.62,21,26.56,26.56,0,0,1-10.54,17,25,25,0,0,1-8.73,4.06,24.18,24.18,0,0,1-9.22.41,22.12,22.12,0,0,1-14.47-8.64,21.7,21.7,0,0,0,7.15,3.39,19.45,19.45,0,0,0,7.45.44A17.88,17.88,0,0,0,280.7,186a15.67,15.67,0,0,0,3.5-11.29,13.63,13.63,0,0,0-4.68-9.24c-.32-.27-.66-.51-.94-.8l-.1-.11-.19-.17c-.13-.11-.25-.23-.37-.35l-.72-.71c-.94-1-1.83-2-2.75-3-1.85-2-3.8-3.84-5.7-5.76L257.3,143.14l-22.92-22.91L188.54,74.41l-2.87-2.86a1.09,1.09,0,0,0-.18-.17l-.07-.06c0-.07-.11-.07-.15-.12A2,2,0,0,0,185,71a2.15,2.15,0,0,0-1.56,0,2,2,0,0,0-.63.39l-.08.06-.36.36-.72.71-1.43,1.44-5.73,5.73-22.91,22.91L140.07,114l-.71.72-.37.36-.51.48c-.7.62-1.37,1.28-2.12,1.85s-1.5,1.13-2.28,1.65-1.62,1-2.44,1.43a30.26,30.26,0,0,1-32-2.55l-1.12-.85-1-.93-1-1c-.31-.29-.63-.67-1-1a30.25,30.25,0,0,1-7.55-14.9,30.19,30.19,0,0,1,7.5-26.11c.3-.32.67-.73.92-1l.72-.72,1.43-1.43,5.73-5.73,22.91-22.91,22.91-22.92,2.87-2.86,1.47-1.46c.59-.56,1.17-1.13,1.77-1.67A50.08,50.08,0,0,1,164,6.77a59.36,59.36,0,0,1,8.76-4.23A31.7,31.7,0,0,1,182.17.1,44.17,44.17,0,0,1,187.05,0c.81,0,1.61.1,2.41.15l.6,0,.5.06,1,.12,8.1.94c5.4.69,10.8,1.31,16.2,2Q232.08,5.48,248.28,8.08Z"/><path class="cls-1" d="M223.8,218a19.4,19.4,0,0,1,7.53,5.81,23.09,23.09,0,0,1,4.44,9.14,23.49,23.49,0,0,1-2,16.52c-.46.9-1.07,1.75-1.62,2.62-.31.4-.62.79-.95,1.18l-.48.58-.25.29-.06.08,0,0c-.05,0,0,0,.15-.16l.25-.26.24-.29.12-.15-.24.32a9,9,0,0,1-1,1,7.67,7.67,0,0,1-1.59,1.05,8.35,8.35,0,0,1-1.49.57,8,8,0,0,1-2.11.29l5.67-2.36a3.59,3.59,0,0,1-.31.34l-.43.46-.89.9a19.94,19.94,0,0,1-2,1.67,17.53,17.53,0,0,1-2.15,1.44,15.88,15.88,0,0,1-2.26,1.21,25,25,0,0,1-2.34,1c-.79.25-1.59.5-2.39.73a30,30,0,0,1-4.86.71,28.58,28.58,0,0,1-17.77-5,16,16,0,0,1-1.8-1.36c-.58-.48-1.17-.94-1.7-1.46a27.09,27.09,0,0,1-2.9-3.24c-.41-.55-.85-1.12-1.22-1.65l-1-1.48c-.63-1-1.28-2-1.9-3a73.59,73.59,0,0,1-6.52-13.32,73.36,73.36,0,0,1,13.54,6.41c1.05.62,2.07,1.27,3.11,1.9l1.52,1,1.29.8a25,25,0,0,0,2.44,1.33c.4.19.82.33,1.21.51l.59.26.61.2a21,21,0,0,0,9.25,1.21,9,9,0,0,0,1.06-.12,9.3,9.3,0,0,1,1-.19c.65-.21,1.31-.35,1.9-.6a5.42,5.42,0,0,0,.88-.38,3.59,3.59,0,0,0,.83-.42,4.46,4.46,0,0,0,.8-.48l.4-.3.21-.14a1.86,1.86,0,0,0,.33-.26l5.67-2.36a8.4,8.4,0,0,0-2.1.28,8.08,8.08,0,0,0-1.47.57,7.8,7.8,0,0,0-1.56,1,7.52,7.52,0,0,0-1,1l-.2.26.16-.21.26-.31.26-.27.17-.17v0l0,0,.11-.1.23-.18c.15-.13.33-.24.49-.37.26-.28.56-.52.84-.81a14.06,14.06,0,0,0,1.57-2,19,19,0,0,0,2.27-5.63,26.24,26.24,0,0,0,.57-7.18A42,42,0,0,0,223.8,218Z"/><path class="cls-1" d="M195.44,189.61c6.05,3.66,11.72,7.7,17.29,11.83s11,8.39,16.31,12.84l2,1.67,1,.86.5.42.42.34c.56.42,1.09.93,1.64,1.27s1.07.73,1.63,1a18.73,18.73,0,0,0,6.87,2.41,16,16,0,0,0,6.59-.4,10.71,10.71,0,0,0,4.66-2.85l-.89,1.11a9.09,9.09,0,0,1,1.57-1.77l.36-.29.29-.22.19-.13.06,0h0l-.34.24a7.89,7.89,0,0,0-.94.81,8.46,8.46,0,0,0-1.95,3.19l2.15-3.41a12.46,12.46,0,0,0,1.77-2.56,15,15,0,0,0,1-3.36,14.73,14.73,0,0,0,.07-3.82l0-.49-.09-.49-.16-1-.27-1a5.06,5.06,0,0,0-.31-1l-.36-1c-.13-.32-.3-.62-.45-.94a18.72,18.72,0,0,0-1-1.86c-.34-.63-.83-1.18-1.23-1.79l-1.61-1.84c-1.39-1.51-2.72-3.07-4.09-4.6s-2.72-3.06-4-4.64Q236,178.89,228.52,169q-3.75-4.92-7.33-10c-2.38-3.4-4.71-6.85-6.87-10.46,3.61,2.16,7.06,4.48,10.45,6.85s6.71,4.81,10,7.3q9.8,7.47,19.06,15.46c1.57,1.31,3.09,2.66,4.61,4s3.07,2.68,4.57,4.06c.84.78,1.79,1.66,2.67,2.54s1.78,1.94,2.55,3a25.68,25.68,0,0,1,2.2,3.34c.33.59.67,1.16,1,1.77l.83,1.85A30.73,30.73,0,0,1,274.45,215a29.6,29.6,0,0,1-2.5,8.32,27.16,27.16,0,0,1-5.35,7.34l2.15-3.41a8.71,8.71,0,0,1-2,3.32,8.1,8.1,0,0,1-1.4,1.15,7.7,7.7,0,0,0,.77-.59,7.89,7.89,0,0,0,1.46-1.65l-.88,1.11a26.48,26.48,0,0,1-13,7.18,30,30,0,0,1-13.83-.33A32.17,32.17,0,0,1,228,231.55c-.86-.66-1.62-1.43-2.42-2.15s-1.4-1.51-2.11-2.26l-.91-1-.82-1-1.62-1.95c-4.4-5.25-8.68-10.73-12.83-16.28S199.1,195.66,195.44,189.61Z"/><path class="cls-1" d="M143.2,257.35a39.57,39.57,0,0,1-14.65,10.3,26.72,26.72,0,0,1-9.48,1.88c-.85,0-1.71-.09-2.59-.14s-1.74-.29-2.62-.47-1.76-.51-2.61-.88l-1.27-.59-.64-.31-.61-.37a20.71,20.71,0,0,1-7.86-8.66,24.87,24.87,0,0,1-2.4-11.56,32,32,0,0,1,8.7-20.57,32.62,32.62,0,0,1,4-3.74c.35-.28.69-.57,1-.85l1.14-.79a23.4,23.4,0,0,1,2.35-1.49,30.52,30.52,0,0,1,10.71-3.86,25.14,25.14,0,0,1,11.73.88,21.45,21.45,0,0,1,9.6,6.36,20.82,20.82,0,0,1,4.71,9.56,22.26,22.26,0,0,1-.31,9.78C150.6,248,147.16,253,143.2,257.35Zm0,0a27.6,27.6,0,0,0,4.85-7.37,20.32,20.32,0,0,0,1.79-8.43,14.87,14.87,0,0,0-2.18-7.73,13.56,13.56,0,0,0-5.42-4.8,11.68,11.68,0,0,0-6.29-1.13,17.38,17.38,0,0,0-5.87,1.63,28.46,28.46,0,0,0-5.43,3.39c-.44.32-.86.7-1.29,1.06a16.73,16.73,0,0,0-1.29,1.14,28.75,28.75,0,0,0-2.41,2.4A30,30,0,0,0,113,248.39a16.77,16.77,0,0,0-.87,6,10.89,10.89,0,0,0,2,5.85,12,12,0,0,0,5.74,4.29,17.66,17.66,0,0,0,8.14.89,23.07,23.07,0,0,0,8.26-2.63A27.29,27.29,0,0,0,143.2,257.35Z"/><path class="cls-1" d="M84.1,198.47c-1.43,1.79-2.94,3.52-4.48,5.21-.76.87-1.56,1.69-2.36,2.51l-2.37,2.51A86.91,86.91,0,0,1,64.41,218l-1.47,1.05-1.57.95a24.2,24.2,0,0,1-3.31,1.75,14.75,14.75,0,0,1-1.78.73c-.62.21-1.22.47-1.86.63a22,22,0,0,1-4,.72,20.45,20.45,0,0,1-8.46-1,29.26,29.26,0,0,1-7.52-3.93l-.29-.28a25.66,25.66,0,0,1-6.4-8,19.49,19.49,0,0,1-1.09-2.56,16.58,16.58,0,0,1-.8-2.71c-.1-.46-.22-.92-.28-1.39l-.15-1.4-.13-1.41c0-.47,0-.92,0-1.38l0-1.39a7.48,7.48,0,0,1,.12-1.36l.43-2.65c.18-.85.44-1.66.67-2.49l.37-1.24.45-1.15.94-2.3c.34-.71.72-1.41,1.08-2.12a39.29,39.29,0,0,1,2.39-4A70.26,70.26,0,0,1,43.37,168a56.33,56.33,0,0,1,15-9.75,37,37,0,0,1,9.21-2.64,25.5,25.5,0,0,1,10,.66,20.56,20.56,0,0,1,8.5,4.8c.55.55,1.12,1.09,1.61,1.66s1,1.15,1.4,1.75.88,1.17,1.27,1.81.8,1.26,1.11,1.95a19.7,19.7,0,0,1,2.18,8.43,22.19,22.19,0,0,1-1.38,8.16A34.74,34.74,0,0,1,88.7,192,67,67,0,0,1,84.1,198.47Zm0,0a42.36,42.36,0,0,0,4.35-6.61,26.2,26.2,0,0,0,2.71-7.34,17.89,17.89,0,0,0-.07-7.54,14.27,14.27,0,0,0-3.36-6.26,19.19,19.19,0,0,0-5.62-4.15,12.52,12.52,0,0,0-6-1.24c-3.93.19-7.61,2.25-11.15,4.88a82.51,82.51,0,0,0-10.11,9.54,140.48,140.48,0,0,0-9.1,10.9c-.62.91-1.32,1.8-1.83,2.7l-.85,1.34-.7,1.31-.37.66-.28.63-.57,1.27q-.2.62-.42,1.23c-.17.42-.2.78-.33,1.18,0,.2-.13.41-.15.6l-.07.57-.09.58c0,.19,0,.38,0,.57a6.42,6.42,0,0,0,0,1.16,7.31,7.31,0,0,0,.16,1.21,15.23,15.23,0,0,0,2.2,5.24l-.28-.28c2.24,2.94,4.9,5.28,8.54,6,3.61.93,8,.1,12.08-1.59l1.54-.63c.5-.26,1-.5,1.5-.77l1.49-.79c.49-.28,1-.59,1.44-.89a55,55,0,0,0,5.59-3.92c1.74-1.47,3.51-2.94,5.14-4.54A58.45,58.45,0,0,0,84.1,198.47Z"/><path class="cls-1" d="M113.64,228c-2.14,2.54-4.31,5.05-6.62,7.47a38.9,38.9,0,0,1-7.93,6.37,30.44,30.44,0,0,1-10,3.86,21.78,21.78,0,0,1-11.75-1,20.39,20.39,0,0,1-10-8.48,24.49,24.49,0,0,1-3.23-12.93A30.82,30.82,0,0,1,67,210.88a36.83,36.83,0,0,1,7-10.22,52.12,52.12,0,0,1,8.58-7.29A43.71,43.71,0,0,1,92.92,188,32.62,32.62,0,0,1,105,186.1c.53,0,1.06,0,1.58.08l1.61.24a25,25,0,0,1,3.16.74,20.41,20.41,0,0,1,5.86,2.94,22.13,22.13,0,0,1,2.43,2.16l1,1.21c.32.4.54.73.82,1.14a21.57,21.57,0,0,1,2.69,5.23,18.33,18.33,0,0,1,.89,5.71,24.62,24.62,0,0,1-.28,2.75,21.45,21.45,0,0,1-.63,2.6,34.15,34.15,0,0,1-4.56,9.14c-.86,1.44-2,2.71-2.89,4.08Zm0,0c1-1.32,2-2.61,3-4,.45-.69.88-1.4,1.32-2.11.21-.35.44-.7.64-1.06l.55-1.11a23.51,23.51,0,0,0,2.76-9.27,14.56,14.56,0,0,0-.39-4.55,11.7,11.7,0,0,0-1.88-3.81,14.06,14.06,0,0,0-3.06-2.84c-.29-.2-.65-.47-.94-.64l-.82-.43a6.2,6.2,0,0,0-.84-.35,5,5,0,0,0-.85-.27,11.16,11.16,0,0,0-3.5-.31,17.29,17.29,0,0,0-3.57.73,28.91,28.91,0,0,0-7,3.39,60.34,60.34,0,0,0-6.59,5.07,85,85,0,0,0-6.25,6,35.12,35.12,0,0,0-4.62,5.91,24.77,24.77,0,0,0-2.92,6.5,15,15,0,0,0-.49,6.55,10.34,10.34,0,0,0,3.25,5.94,14.39,14.39,0,0,0,7.45,3.33,21.31,21.31,0,0,0,9.21-.91,25.35,25.35,0,0,0,8.51-4.7A57.55,57.55,0,0,0,113.64,228Z"/><path class="cls-1" d="M54,168.36c-2.15,2.53-4.31,5-6.62,7.46a39,39,0,0,1-7.95,6.37,30.6,30.6,0,0,1-10,3.84,21.77,21.77,0,0,1-11.74-1,20.5,20.5,0,0,1-9.95-8.5,24.58,24.58,0,0,1-3.22-12.94,30.92,30.92,0,0,1,2.9-12.42,37.36,37.36,0,0,1,7-10.21A53.11,53.11,0,0,1,23,133.66a43.94,43.94,0,0,1,10.37-5.32,32.71,32.71,0,0,1,12.12-1.93c.53,0,1.05,0,1.59.09l1.6.24.79.13.8.2,1.57.41a20.62,20.62,0,0,1,5.86,3,11.41,11.41,0,0,1,1.26,1,10.23,10.23,0,0,1,1.16,1.12l1,1.21c.3.4.53.72.81,1.14a21.45,21.45,0,0,1,2.69,5.24,18.59,18.59,0,0,1,.88,5.7,22.09,22.09,0,0,1-.92,5.36A35,35,0,0,1,60,160.39c-.86,1.44-2,2.71-2.9,4.08Zm0,0c1-1.32,2-2.61,3-4,.45-.69.88-1.4,1.32-2.11.21-.35.44-.69.64-1.06l.55-1.11a23.48,23.48,0,0,0,2.77-9.27,14.59,14.59,0,0,0-.37-4.55A12,12,0,0,0,60,142.47,13.83,13.83,0,0,0,57,139.63c-.27-.2-.64-.46-.93-.65l-.83-.43a4.14,4.14,0,0,0-.84-.35,4.36,4.36,0,0,0-.84-.28,11.49,11.49,0,0,0-3.5-.32,17.29,17.29,0,0,0-3.57.73,29,29,0,0,0-7,3.38,61.41,61.41,0,0,0-6.58,5.06,83.05,83.05,0,0,0-6.26,6A36.13,36.13,0,0,0,22,158.64a24.84,24.84,0,0,0-2.94,6.5,15.3,15.3,0,0,0-.5,6.55,10.45,10.45,0,0,0,3.25,5.95A14.33,14.33,0,0,0,29.25,181a21.18,21.18,0,0,0,9.21-.9A25.48,25.48,0,0,0,47,175.4,57.63,57.63,0,0,0,54,168.36Z"/><line class="cls-2" x1="24.99" y1="139.36" x2="8.5" y2="122.87"/><path class="cls-1" d="M86.4,200.77a53,53,0,0,1-5.28,4.13c-1.1.72-1.68.91-1.88.73s0-.76.71-1.86a53,53,0,0,1,4.15-5.3,53,53,0,0,1,5.3-4.15c1.1-.72,1.67-.9,1.86-.71s0,.78-.73,1.88A53,53,0,0,1,86.4,200.77Z"/><path class="cls-1" d="M115.38,229.75c-2.65,2.36-4,3.46-5.14,4.27s-1.58,1-1.74.87.09-.67.85-1.72,1.92-2.5,4.29-5.16c2.66-2.37,4.06-3.48,5.16-4.29s1.57-1,1.72-.85-.1.68-.87,1.74S117.74,227.1,115.38,229.75Z"/><path class="cls-1" d="M54.61,169c-2.56,2.45-3.85,3.65-4.86,4.55s-1.4,1.19-1.46,1.15.27-.48,1.13-1.44,2.1-2.31,4.57-4.88,3.88-3.67,4.88-4.57,1.39-1.18,1.44-1.13-.29.5-1.15,1.46S57.06,166.42,54.61,169Z"/><path class="cls-1" d="M74.1,8.07a60,60,0,0,1,6.12,2.79c2,1,3.86,2.08,5.73,3.18q5.56,3.34,10.69,7.13c1.71,1.26,3.38,2.56,5,3.88.82.66,1.65,1.32,2.45,2l1.21,1,.6.52.15.12s0,0,0,0l0,0a.67.67,0,0,0-.14-.15,2.81,2.81,0,0,0-3.29-.56,3.38,3.38,0,0,0-.41.24c-.06.05-.13.09-.18.14s-.16.16,0,0l1.08-1.14L105.33,25c1.49-1.48,3-2.95,4.53-4.38l2.32-2.13,1.18-1.06.75-.64.84-.69a25.22,25.22,0,0,1,7.52-4.2,24.61,24.61,0,0,1,8.3-1.5,23.53,23.53,0,0,1,14.95,5.05,20.69,20.69,0,0,1,4.85,5.68,50.48,50.48,0,0,1,2.81,6.15c-2.15-.8-4.18-1.82-6.11-2.75a22.69,22.69,0,0,0-5.35-1.64c-.45-.05-.87-.12-1.29-.18s-.86-.05-1.27-.07a8.57,8.57,0,0,0-1.24,0,8.18,8.18,0,0,0-1.21.06,19.15,19.15,0,0,0-4.48,1,15.6,15.6,0,0,0-3.78,1.91A17.8,17.8,0,0,0,127,26.76c-.26.21-.47.47-.72.69l-.36.33-.32.38-1.78,2-2.13,2.32c-1.43,1.53-2.9,3-4.38,4.53l-2.25,2.2L114,40.27l-.58.54c-.26.22-.51.45-.78.65a12,12,0,0,1-1.72,1.11A13.45,13.45,0,0,1,103,44.15,13.26,13.26,0,0,1,95.77,41c-.25-.22-.49-.44-.72-.67l-.18-.18L94.75,40l-.13-.15-.52-.59-1-1.22c-.69-.8-1.34-1.63-2-2.44-1.32-1.66-2.62-3.32-3.87-5-2.53-3.41-4.9-7-7.14-10.68-1.1-1.87-2.18-3.76-3.18-5.73A60,60,0,0,1,74.1,8.07Z"/><path class="cls-1" d="M143.52,257a75.23,75.23,0,0,1,6.77,3.43c2.18,1.21,4.28,2.51,6.37,3.82s4.1,2.7,6.09,4.11c1,.69,2,1.41,3,2.12l.73.55c.24.17.45.29.67.44l1.28.85a12.9,12.9,0,0,0,1.27.76c.42.23.83.49,1.24.7a21.63,21.63,0,0,0,2.41,1,17,17,0,0,0,2.2.63c.34,0,.67.05,1,.1s.62,0,.92,0a9.4,9.4,0,0,0,3.44-.82,16.62,16.62,0,0,0,3.79-2.37c.33-.28.67-.53,1-.83l1-.94.82-.83c.26-.28.48-.59.74-.87a16,16,0,0,0,2.29-3.81,13.64,13.64,0,0,0,.68-8.82,20.28,20.28,0,0,0-2.13-5c-.24-.44-.53-.85-.8-1.28l-.11-.16,0,0-.1-.11a.63.63,0,0,1-.08-.11l-.27-.38-.51-.76-2-3.08c-1.31-2.09-2.6-4.19-3.82-6.38a73.86,73.86,0,0,1-3.42-6.77,73.86,73.86,0,0,1,6.77,3.42c2.19,1.22,4.29,2.51,6.38,3.82l3.08,2,.76.51.38.27s.08.06.07,0l0,0,.06,0,.21.16c.57.42,1.16.83,1.72,1.29a26.14,26.14,0,0,1,6,6.85,23.82,23.82,0,0,1,3.25,9.25,25.59,25.59,0,0,1-.62,10,28.08,28.08,0,0,1-4.17,9c-.49.66-1,1.33-1.5,2s-1.08,1.23-1.63,1.81l-1.6,1.54c-.56.51-1.17,1-1.75,1.5a29.38,29.38,0,0,1-8.62,4.84A23.36,23.36,0,0,1,176,291.58a24.93,24.93,0,0,1-2.63-.5c-.84-.24-1.68-.5-2.5-.78a26.82,26.82,0,0,1-4.42-2.21,30.15,30.15,0,0,1-3.74-2.72,40.7,40.7,0,0,1-3.1-3.05l-1.36-1.6c-.22-.27-.46-.55-.65-.8l-.55-.73c-.71-1-1.43-2-2.13-3-1.41-2-2.77-4-4.1-6.09s-2.61-4.18-3.83-6.37A73.73,73.73,0,0,1,143.52,257Z"/></g></g></svg>